<?xml version="1.0" encoding="utf-8"?>
<!-- Generator: Adobe Illustrator 22.0.0, SVG Export Plug-In . SVG Version: 6.00 Build 0)  -->
<svg version="1.1" id="Calque_x5F_1" xmlns="http://www.w3.org/2000/svg" xmlns:xlink="http://www.w3.org/1999/xlink" x="0px"
	 y="0px" viewBox="0 0 110.4 112.9" style="enable-background:new 0 0 110.4 112.9;" xml:space="preserve">
<style type="text/css">
	.st0{fill:url(#SVGID_1_);}
</style>
<g>
	
		<image style="overflow:visible;opacity:0.5;" width="78" height="76" xlink:href="737F155B3D9DF044.png"  transform="matrix(1 0 0 1 18.9903 18.972)">
	</image>
	<g>
		
			<linearGradient id="SVGID_1_" gradientUnits="userSpaceOnUse" x1="19.3645" y1="29.347" x2="76.793" y2="86.7755" gradientTransform="matrix(0.9998 -1.917283e-02 1.917283e-02 0.9998 2.0543 1.4822)">
			<stop  offset="0" style="stop-color:#FFFFFF"/>
			<stop  offset="1" style="stop-color:#D0D0D0"/>
		</linearGradient>
		<path class="st0" d="M40.4,47.4c0,0,7.6,14.2,22.3,21.4c0,0,1.6,0.4,3.4-1.4l2.8-2.8c0,0,1.9-3,6.6-0.7l13.3,7.5
			c0,0,4.7,1.8,0.1,6.5l-8.5,8.9c0,0-1.9,3.7-11.6,1.7c0,0-33.1-8-48.1-45.5c0,0-3.3-6.8,1.1-12.3l9.4-9.8c0,0,3.8-3.3,5.8,1.2
			l7.3,13.3c0,0,2.7,3-0.6,6.5l-2.9,2.8C40.9,44.6,39.4,45.7,40.4,47.4z"/>
	</g>
</g>
</svg>
